<svg width="32" height="32" viewBox="0 0 32 32" fill="none" xmlns="http://www.w3.org/2000/svg">
<path fill-rule="evenodd" clip-rule="evenodd" d="M14.0667 26.7066L15.1059 27.6526C15.6132 28.1145 16.3882 28.116 16.8973 27.656L17.9334 26.72L17.986 26.6721C24.8232 20.459 29.3334 16.3604 29.3334 11.3333C29.3334 7.22666 26.1067 4 22.0001 4C20.3695 4 18.785 4.53352 17.4827 5.44316C16.9321 5.82774 16.4319 6.27953 16.0001 6.78666C15.5682 6.27953 15.0681 5.82774 14.5175 5.44316C13.2152 4.53352 11.6307 4 10.0001 4C5.89341 4 2.66675 7.22666 2.66675 11.3333C2.66675 16.3692 7.19264 20.4732 14.0498 26.6913L14.0667 26.7066ZM16.5884 25.2398L16.5905 25.2379C20.0635 22.0818 22.7836 19.6065 24.6599 17.3109C26.5136 15.043 27.3334 13.1964 27.3334 11.3333C27.3334 8.33123 25.0022 6 22.0001 6C20.2857 6 18.6089 6.80787 17.5228 8.08334L16.5077 9.27542C16.2415 9.58801 15.7587 9.58801 15.4925 9.27542L14.4774 8.08334C13.3912 6.80787 11.7145 6 10.0001 6C6.99798 6 4.66675 8.33123 4.66675 11.3333C4.66675 13.1964 5.48657 15.0429 7.33985 17.3087C9.2161 19.6026 11.9367 22.0752 15.4102 25.2251L15.4131 25.2277L16.0052 25.7667L16.5884 25.2398Z" fill="#3B3B3B"/>
</svg>
