<svg width="22" height="25" viewBox="0 0 22 25" fill="none" xmlns="http://www.w3.org/2000/svg">
<path d="M21.2009 23.6947L19.3388 5.96219C19.2997 5.59097 18.9868 5.30909 18.6135 5.30909H15.1136V4.51113C15.1136 2.02378 13.0899 0 10.6025 0C8.11499 0 6.0912 2.02378 6.0912 4.51113V5.30909H2.59131C2.21803 5.30909 1.90512 5.59097 1.86606 5.96219L0.00395896 23.6947C-0.0175369 23.9002 0.0491936 24.1052 0.187328 24.2589C0.325649 24.4123 0.522662 24.5 0.729209 24.5H20.4755C20.6822 24.5 20.8792 24.4123 21.0173 24.2589C21.1558 24.1052 21.2224 23.9002 21.2009 23.6947ZM7.54955 4.51113C7.54955 2.82792 8.91912 1.45835 10.6025 1.45835C12.2857 1.45835 13.6553 2.82792 13.6553 4.51113V5.30909H7.54955V4.51113ZM1.53895 23.0416L3.24796 6.76744H6.0912V8.3744C6.0912 8.77702 6.41775 9.10357 6.82038 9.10357C7.223 9.10357 7.54955 8.77702 7.54955 8.3744V6.76744H13.6553V8.3744C13.6553 8.77702 13.9818 9.10357 14.3845 9.10357C14.7871 9.10357 15.1136 8.77702 15.1136 8.3744V6.76744H17.9569L19.6659 23.0416H1.53895Z" fill="#1D1D1D" fill-opacity="0.87"/>
</svg>
